<svg width="18" height="18" viewBox="0 0 18 18" fill="none" xmlns="http://www.w3.org/2000/svg">
<path d="M6 6.75C4.779 6.75 3.75 7.779 3.75 9C3.75 10.221 4.779 11.25 6 11.25C7.221 11.25 8.25 10.221 8.25 9C8.25 7.779 7.221 6.75 6 6.75Z" fill="#252733"/>
<path d="M12 4.5H6C3.525 4.5 1.50825 6.51675 1.5 9V9.012C1.50515 10.2028 1.98129 11.3431 2.82443 12.184C3.66757 13.0249 4.80921 13.498 6 13.5H12C13.1921 13.498 14.3348 13.0239 15.1782 12.1814C16.0216 11.3389 16.4968 10.1966 16.5 9.0045V9C16.4932 6.51825 14.4757 4.5 12 4.5ZM12 12H6C5.20601 11.9988 4.44477 11.6834 3.88263 11.1227C3.3205 10.5619 3.00317 9.80148 3 9.0075C3.003 7.34925 4.3485 6 6 6H12C13.6515 6 14.997 7.34925 15 9.0045C14.9974 9.79894 14.6804 10.56 14.1182 11.1214C13.556 11.6827 12.7944 11.9986 12 12ZM15 9.012L15.3323 9.009L15.75 9.012H15Z" fill="#252733"/>
</svg>
