<svg width="24" height="24" viewBox="0 0 24 24" fill="none" xmlns="http://www.w3.org/2000/svg">
<path d="M20.781 5.46912C20.8508 5.53879 20.9062 5.62155 20.944 5.71267C20.9818 5.80379 21.0013 5.90147 21.0013 6.00012C21.0013 6.09877 20.9818 6.19645 20.944 6.28757C20.9062 6.37869 20.8508 6.46145 20.781 6.53112L10.281 17.0311C10.2113 17.101 10.1285 17.1564 10.0374 17.1942C9.9463 17.232 9.84862 17.2515 9.74997 17.2515C9.65132 17.2515 9.55364 17.232 9.46252 17.1942C9.3714 17.1564 9.28864 17.101 9.21897 17.0311L3.96897 11.7811C3.82814 11.6403 3.74902 11.4493 3.74902 11.2501C3.74902 11.051 3.82814 10.86 3.96897 10.7191C4.1098 10.5783 4.30081 10.4992 4.49997 10.4992C4.69913 10.4992 4.89014 10.5783 5.03097 10.7191L9.74997 15.4396L19.719 5.46912C19.7886 5.39928 19.8714 5.34386 19.9625 5.30605C20.0536 5.26824 20.1513 5.24878 20.25 5.24878C20.3486 5.24878 20.4463 5.26824 20.5374 5.30605C20.6285 5.34386 20.7113 5.39928 20.781 5.46912Z" fill="white"/>
</svg>
