<svg width="17" height="12" viewBox="0 0 17 12" fill="none" xmlns="http://www.w3.org/2000/svg">
<path fill-rule="evenodd" clip-rule="evenodd" d="M0.218998 6.53097C0.149153 6.4613 0.0937388 6.37854 0.0559291 6.28742C0.0181194 6.1963 -0.00134277 6.09862 -0.00134277 5.99997C-0.00134277 5.90132 0.0181194 5.80364 0.0559291 5.71252C0.0937388 5.6214 0.149153 5.53864 0.218998 5.46897L4.719 0.968971C4.78873 0.899239 4.87151 0.843925 4.96262 0.806186C5.05373 0.768447 5.15138 0.749023 5.25 0.749023C5.34861 0.749023 5.44626 0.768447 5.53737 0.806186C5.62848 0.843925 5.71127 0.899239 5.781 0.968971C5.85073 1.0387 5.90604 1.12149 5.94378 1.2126C5.98152 1.3037 6.00095 1.40136 6.00095 1.49997C6.00095 1.59859 5.98152 1.69624 5.94378 1.78735C5.90604 1.87846 5.85073 1.96124 5.781 2.03097L2.5605 5.24997H15.75C15.9489 5.24997 16.1397 5.32899 16.2803 5.46964C16.421 5.61029 16.5 5.80106 16.5 5.99997C16.5 6.19888 16.421 6.38965 16.2803 6.5303C16.1397 6.67095 15.9489 6.74997 15.75 6.74997H2.5605L5.781 9.96897C5.85073 10.0387 5.90604 10.1215 5.94378 10.2126C5.98152 10.3037 6.00095 10.4014 6.00095 10.5C6.00095 10.5986 5.98152 10.6962 5.94378 10.7873C5.90604 10.8785 5.85073 10.9612 5.781 11.031C5.71127 11.1007 5.62848 11.156 5.53737 11.1938C5.44626 11.2315 5.34861 11.2509 5.25 11.2509C5.15138 11.2509 5.05373 11.2315 4.96262 11.1938C4.87151 11.156 4.78873 11.1007 4.719 11.031L0.218998 6.53097V6.53097Z" fill="white"/>
</svg>
