<svg width="15" height="15" viewBox="0 0 15 15" fill="none" xmlns="http://www.w3.org/2000/svg">
<path d="M0.999979 14.75C1.05976 14.7572 1.1202 14.7572 1.17998 14.75L4.17998 14C4.31306 13.9684 4.43496 13.9009 4.53248 13.805L13.75 4.55749C14.0294 4.27644 14.1862 3.89627 14.1862 3.49999C14.1862 3.10371 14.0294 2.72353 13.75 2.44249L12.565 1.24999C12.4257 1.11052 12.2602 0.999885 12.0781 0.924399C11.896 0.848913 11.7009 0.810059 11.5037 0.810059C11.3066 0.810059 11.1114 0.848913 10.9293 0.924399C10.7472 0.999885 10.5818 1.11052 10.4425 1.24999L1.22498 10.4675C1.12807 10.5655 1.05829 10.6869 1.02248 10.82L0.272479 13.82C0.245523 13.917 0.238388 14.0185 0.251501 14.1184C0.264613 14.2182 0.297705 14.3144 0.348801 14.4012C0.399897 14.488 0.467951 14.5636 0.548903 14.6235C0.629855 14.6835 0.722047 14.7265 0.819979 14.75C0.879762 14.7572 0.940197 14.7572 0.999979 14.75ZM11.5 2.30749L12.6925 3.49999L11.5 4.69249L10.315 3.49999L11.5 2.30749ZM2.43248 11.3825L9.24998 4.55749L10.4425 5.74999L3.61748 12.575L2.03498 12.965L2.43248 11.3825Z" fill="#252733"/>
</svg>
