<svg width="15" height="15" viewBox="0 0 15 15" fill="none" xmlns="http://www.w3.org/2000/svg">
<path d="M0.501428 5.22246C0.484178 5.53071 0.656678 5.81796 0.937178 5.94696L6.56518 8.52846L9.14668 14.1557C9.26968 14.4227 9.53668 14.593 9.82843 14.593L9.87118 14.5915C10.0217 14.583 10.1662 14.5294 10.2858 14.4376C10.4054 14.3459 10.4946 14.2202 10.5417 14.077L14.7379 1.30296C14.8257 1.03446 14.7552 0.738209 14.5557 0.537959C14.3562 0.337709 14.0607 0.269459 13.7907 0.355709L1.01593 4.55196C0.872714 4.59906 0.74702 4.68823 0.655242 4.80784C0.563463 4.92744 0.509862 5.07193 0.501428 5.22246ZM12.8494 2.24421L9.71293 11.7917L7.81243 7.65021C7.73768 7.48693 7.60671 7.35596 7.44343 7.28121L3.30043 5.38071L12.8494 2.24421Z" fill="#252733"/>
</svg>
