<svg width="24" height="24" viewBox="0 0 24 24" fill="none" xmlns="http://www.w3.org/2000/svg">
<path d="M21.675 14.6634L20.1398 13.3509C20.2125 12.9055 20.25 12.4509 20.25 11.9962C20.25 11.5415 20.2125 11.0868 20.1398 10.6415L21.675 9.32898C21.7908 9.22985 21.8737 9.09783 21.9126 8.95046C21.9515 8.80309 21.9447 8.64736 21.893 8.50398L21.8719 8.44304C21.4492 7.26185 20.8164 6.16687 20.0039 5.21101L19.9617 5.16179C19.8631 5.0459 19.7318 4.96259 19.5849 4.92284C19.4381 4.88309 19.2826 4.88878 19.1391 4.93914L17.2336 5.61648C16.5305 5.03992 15.7453 4.58523 14.8969 4.26648L14.5289 2.27429C14.5011 2.12439 14.4284 1.98649 14.3204 1.8789C14.2124 1.77131 14.0742 1.69913 13.9242 1.67195L13.8609 1.66023C12.6398 1.43992 11.3555 1.43992 10.1344 1.66023L10.0711 1.67195C9.92108 1.69913 9.78289 1.77131 9.67488 1.8789C9.56688 1.98649 9.49416 2.12439 9.4664 2.27429L9.09609 4.27585C8.25442 4.59467 7.47062 5.04912 6.77577 5.62117L4.85624 4.93914C4.71272 4.88838 4.55716 4.88249 4.41022 4.92226C4.26327 4.96203 4.13191 5.04558 4.03359 5.16179L3.9914 5.21101C3.17987 6.16755 2.54712 7.26235 2.12343 8.44304L2.10234 8.50398C1.99687 8.79695 2.08359 9.12507 2.32031 9.32898L3.87421 10.6555C3.80156 11.0962 3.7664 11.5462 3.7664 11.9938C3.7664 12.4438 3.80156 12.8938 3.87421 13.3321L2.32031 14.6587C2.20451 14.7578 2.12164 14.8898 2.0827 15.0372C2.04377 15.1846 2.05062 15.3403 2.10234 15.4837L2.12343 15.5446C2.54765 16.7259 3.17577 17.8157 3.9914 18.7766L4.03359 18.8259C4.13215 18.9417 4.26352 19.0251 4.41037 19.0648C4.55723 19.1046 4.71268 19.0989 4.85624 19.0485L6.77577 18.3665C7.47421 18.9407 8.25468 19.3954 9.09609 19.7118L9.4664 21.7134C9.49416 21.8633 9.56688 22.0012 9.67488 22.1088C9.78289 22.2163 9.92108 22.2885 10.0711 22.3157L10.1344 22.3274C11.3667 22.5489 12.6286 22.5489 13.8609 22.3274L13.9242 22.3157C14.0742 22.2885 14.2124 22.2163 14.3204 22.1088C14.4284 22.0012 14.5011 21.8633 14.5289 21.7134L14.8969 19.7212C15.745 19.4033 16.5345 18.9471 17.2336 18.3712L19.1391 19.0485C19.2826 19.0993 19.4381 19.1052 19.5851 19.0654C19.732 19.0256 19.8634 18.9421 19.9617 18.8259L20.0039 18.7766C20.8195 17.8134 21.4476 16.7259 21.8719 15.5446L21.893 15.4837C21.9984 15.1954 21.9117 14.8673 21.675 14.6634ZM18.4758 10.918C18.5344 11.2719 18.5648 11.6352 18.5648 11.9985C18.5648 12.3618 18.5344 12.7251 18.4758 13.079L18.3211 14.0188L20.0719 15.5165C19.8065 16.1279 19.4714 16.7068 19.0734 17.2415L16.8984 16.4704L16.1625 17.0751C15.6023 17.5344 14.9789 17.8954 14.3039 18.1485L13.4109 18.4837L12.9914 20.7571C12.3295 20.8321 11.6612 20.8321 10.9992 20.7571L10.5797 18.479L9.69374 18.1391C9.02577 17.886 8.40468 17.5251 7.84921 17.068L7.11327 16.461L4.92421 17.2391C4.52577 16.7024 4.19296 16.1235 3.92577 15.5141L5.69531 14.0024L5.54296 13.0649C5.48671 12.7157 5.45624 12.3548 5.45624 11.9985C5.45624 11.6399 5.48437 11.2813 5.54296 10.9321L5.69531 9.9946L3.92577 8.48289C4.19062 7.87117 4.52577 7.2946 4.92421 6.75789L7.11327 7.53601L7.84921 6.92898C8.40468 6.47195 9.02577 6.11101 9.69374 5.85789L10.582 5.52273L11.0016 3.2446C11.6601 3.1696 12.3328 3.1696 12.9937 3.2446L13.4133 5.51804L14.3062 5.8532C14.9789 6.10632 15.6047 6.46726 16.1648 6.92664L16.9008 7.53132L19.0758 6.76023C19.4742 7.29695 19.807 7.87585 20.0742 8.48523L18.3234 9.98289L18.4758 10.918ZM12 7.63914C9.72187 7.63914 7.87499 9.48601 7.87499 11.7641C7.87499 14.0423 9.72187 15.8891 12 15.8891C14.2781 15.8891 16.125 14.0423 16.125 11.7641C16.125 9.48601 14.2781 7.63914 12 7.63914ZM13.8562 13.6204C13.6128 13.8646 13.3234 14.0582 13.0049 14.1901C12.6863 14.322 12.3448 14.3897 12 14.3891C11.2992 14.3891 10.6406 14.1149 10.1437 13.6204C9.89958 13.3769 9.70596 13.0876 9.57403 12.769C9.4421 12.4504 9.37446 12.1089 9.37499 11.7641C9.37499 11.0634 9.64921 10.4048 10.1437 9.90789C10.6406 9.41101 11.2992 9.13914 12 9.13914C12.7008 9.13914 13.3594 9.41101 13.8562 9.90789C14.1004 10.1514 14.294 10.4407 14.426 10.7593C14.5579 11.0778 14.6255 11.4193 14.625 11.7641C14.625 12.4649 14.3508 13.1235 13.8562 13.6204Z" fill="#A4A6B3"/>
</svg>
