<svg width="24" height="24" viewBox="0 0 24 24" fill="none" xmlns="http://www.w3.org/2000/svg">
<path d="M19.3171 16.4038C18.7305 15.8167 18.045 15.3375 17.2921 14.9882C18.3538 14.1281 19.0312 12.8156 19.0312 11.3437C19.0312 8.74681 16.8656 6.61635 14.2687 6.65619C11.7117 6.69603 9.6515 8.77963 9.6515 11.3437C9.6515 12.8156 10.3312 14.1281 11.3906 14.9882C10.6375 15.3373 9.95202 15.8165 9.36556 16.4038C8.08587 17.6859 7.35931 19.3781 7.31244 21.1828C7.31181 21.2078 7.3162 21.2327 7.32534 21.2559C7.33448 21.2792 7.3482 21.3005 7.36567 21.3184C7.38314 21.3363 7.40403 21.3505 7.42708 21.3602C7.45014 21.3699 7.47491 21.3749 7.49994 21.3749H8.81244C8.91322 21.3749 8.99759 21.2953 8.99994 21.1945C9.04447 19.8351 9.59525 18.5624 10.5632 17.5968C11.0585 17.0989 11.6477 16.7041 12.2966 16.4353C12.9456 16.1666 13.6413 16.0292 14.3437 16.0312C15.771 16.0312 17.114 16.5867 18.1242 17.5968C19.0898 18.5624 19.6406 19.8351 19.6874 21.1945C19.6898 21.2953 19.7742 21.3749 19.8749 21.3749H21.1874C21.2125 21.3749 21.2372 21.3699 21.2603 21.3602C21.2834 21.3505 21.3042 21.3363 21.3217 21.3184C21.3392 21.3005 21.3529 21.2792 21.362 21.2559C21.3712 21.2327 21.3756 21.2078 21.3749 21.1828C21.3281 19.3781 20.6015 17.6859 19.3171 16.4038ZM14.3437 14.3437C13.5421 14.3437 12.7874 14.032 12.2226 13.4648C11.9391 13.1835 11.7152 12.8481 11.5642 12.4784C11.4132 12.1088 11.3382 11.7125 11.3437 11.3132C11.3507 10.5445 11.6577 9.8015 12.1945 9.25072C12.757 8.67416 13.5093 8.35306 14.3132 8.34369C15.1078 8.33666 15.8788 8.64603 16.446 9.2015C17.0273 9.77103 17.346 10.5328 17.346 11.3437C17.346 12.1453 17.0343 12.8976 16.4671 13.4648C16.1889 13.7444 15.8579 13.966 15.4934 14.1169C15.1289 14.2678 14.7382 14.3448 14.3437 14.3437ZM8.47259 11.9624C8.4515 11.7585 8.43978 11.5523 8.43978 11.3437C8.43978 10.971 8.47494 10.6078 8.54056 10.2538C8.55697 10.1695 8.51244 10.0828 8.43509 10.0476C8.11634 9.90463 7.82337 9.70775 7.57025 9.45931C7.27198 9.17011 7.03728 8.82191 6.8811 8.43693C6.72493 8.05195 6.65073 7.63864 6.66322 7.22338C6.68431 6.47103 6.98666 5.75619 7.514 5.21713C8.09291 4.62416 8.87103 4.30072 9.69837 4.3101C10.446 4.31713 11.1679 4.60541 11.714 5.11635C11.8992 5.28978 12.0585 5.48197 12.1921 5.68822C12.239 5.76088 12.3304 5.79135 12.4101 5.76322C12.8226 5.62025 13.2585 5.51947 13.7062 5.4726C13.8374 5.45853 13.9124 5.31791 13.8538 5.20072C13.0921 3.69369 11.5359 2.65306 9.73587 2.62494C7.13666 2.5851 4.97103 4.71556 4.97103 7.3101C4.97103 8.78197 5.64837 10.0945 6.71009 10.9546C5.96478 11.2992 5.27806 11.7749 4.68275 12.3703C3.39837 13.6523 2.67181 15.3445 2.62494 17.1515C2.62431 17.1765 2.6287 17.2014 2.63784 17.2247C2.64698 17.248 2.6607 17.2692 2.67817 17.2871C2.69564 17.305 2.71652 17.3193 2.73958 17.329C2.76264 17.3387 2.78741 17.3437 2.81244 17.3437H4.12728C4.22806 17.3437 4.31244 17.264 4.31478 17.1632C4.35931 15.8038 4.91009 14.5312 5.87806 13.5656C6.56712 12.8765 7.41087 12.3984 8.33197 12.1663C8.42337 12.1429 8.48431 12.0562 8.47259 11.9624V11.9624Z" fill="#A4A6B3"/>
</svg>
