<svg width="18" height="18" viewBox="0 0 18 18" fill="none" xmlns="http://www.w3.org/2000/svg">
<path d="M6.375 4.44675H8.10703V12.3757C8.10703 12.4788 8.19141 12.5632 8.29453 12.5632H9.70078C9.80391 12.5632 9.88828 12.4788 9.88828 12.3757V4.44675H11.625C11.782 4.44675 11.8687 4.26628 11.7727 4.1444L9.14766 0.820965C9.13012 0.798554 9.10771 0.78043 9.08212 0.767966C9.05654 0.755501 9.02846 0.749023 9 0.749023C8.97154 0.749023 8.94346 0.755501 8.91788 0.767966C8.89229 0.78043 8.86988 0.798554 8.85234 0.820965L6.22734 4.14206C6.13125 4.26628 6.21797 4.44675 6.375 4.44675ZM17.5781 11.6725H16.1719C16.0688 11.6725 15.9844 11.7569 15.9844 11.86V15.4694H2.01562V11.86C2.01562 11.7569 1.93125 11.6725 1.82812 11.6725H0.421875C0.31875 11.6725 0.234375 11.7569 0.234375 11.86V16.5007C0.234375 16.9155 0.569531 17.2507 0.984375 17.2507H17.0156C17.4305 17.2507 17.7656 16.9155 17.7656 16.5007V11.86C17.7656 11.7569 17.6812 11.6725 17.5781 11.6725Z" fill="#B5B8C4"/>
</svg>
