<svg width="20" height="20" viewBox="0 0 20 20" fill="none" xmlns="http://www.w3.org/2000/svg">
<path d="M17.3171 14.4038C16.7305 13.8167 16.045 13.3375 15.2921 12.9882C16.3538 12.1281 17.0312 10.8156 17.0312 9.34369C17.0312 6.74681 14.8656 4.61635 12.2687 4.65619C9.71166 4.69603 7.6515 6.77963 7.6515 9.34369C7.6515 10.8156 8.33119 12.1281 9.39056 12.9882C8.63753 13.3373 7.95202 13.8165 7.36556 14.4038C6.08587 15.6859 5.35931 17.3781 5.31244 19.1828C5.31181 19.2078 5.3162 19.2327 5.32534 19.2559C5.33448 19.2792 5.3482 19.3005 5.36567 19.3184C5.38314 19.3363 5.40403 19.3505 5.42708 19.3602C5.45014 19.3699 5.47491 19.3749 5.49994 19.3749H6.81244C6.91322 19.3749 6.99759 19.2953 6.99994 19.1945C7.04447 17.8351 7.59525 16.5624 8.56322 15.5968C9.05855 15.0989 9.64772 14.7041 10.2966 14.4353C10.9456 14.1666 11.6413 14.0292 12.3437 14.0312C13.771 14.0312 15.114 14.5867 16.1242 15.5968C17.0898 16.5624 17.6406 17.8351 17.6874 19.1945C17.6898 19.2953 17.7742 19.3749 17.8749 19.3749H19.1874C19.2125 19.3749 19.2372 19.3699 19.2603 19.3602C19.2833 19.3505 19.3042 19.3363 19.3217 19.3184C19.3392 19.3005 19.3529 19.2792 19.362 19.2559C19.3712 19.2327 19.3756 19.2078 19.3749 19.1828C19.3281 17.3781 18.6015 15.6859 17.3171 14.4038ZM12.3437 12.3437C11.5421 12.3437 10.7874 12.032 10.2226 11.4648C9.93912 11.1835 9.71521 10.8481 9.5642 10.4784C9.4132 10.1088 9.3382 9.71249 9.34369 9.31322C9.35072 8.54447 9.65775 7.8015 10.1945 7.25072C10.757 6.67416 11.5093 6.35306 12.3132 6.34369C13.1077 6.33666 13.8788 6.64603 14.446 7.2015C15.0273 7.77103 15.346 8.53275 15.346 9.34369C15.346 10.1453 15.0343 10.8976 14.4671 11.4648C14.1889 11.7444 13.8579 11.966 13.4934 12.1169C13.1289 12.2678 12.7382 12.3448 12.3437 12.3437ZM6.47259 9.96244C6.4515 9.75853 6.43978 9.55228 6.43978 9.34369C6.43978 8.97103 6.47494 8.60775 6.54056 8.25385C6.55697 8.16947 6.51244 8.08275 6.43509 8.0476C6.11634 7.90463 5.82337 7.70775 5.57025 7.45931C5.27198 7.17011 5.03728 6.82191 4.8811 6.43693C4.72493 6.05195 4.65073 5.63864 4.66322 5.22338C4.68431 4.47103 4.98666 3.75619 5.514 3.21713C6.09291 2.62416 6.87103 2.30072 7.69837 2.3101C8.44603 2.31713 9.16791 2.60541 9.714 3.11635C9.89916 3.28978 10.0585 3.48197 10.1921 3.68822C10.239 3.76088 10.3304 3.79135 10.4101 3.76322C10.8226 3.62025 11.2585 3.51947 11.7062 3.4726C11.8374 3.45853 11.9124 3.31791 11.8538 3.20072C11.0921 1.69369 9.53587 0.653065 7.73587 0.62494C5.13666 0.585096 2.97103 2.71556 2.97103 5.3101C2.97103 6.78197 3.64837 8.09447 4.71009 8.95463C3.96478 9.29916 3.27806 9.77494 2.68275 10.3703C1.39837 11.6523 0.671812 13.3445 0.624937 15.1515C0.624311 15.1765 0.628699 15.2014 0.637841 15.2247C0.646983 15.248 0.660695 15.2692 0.678169 15.2871C0.695642 15.305 0.716524 15.3193 0.739584 15.329C0.762644 15.3387 0.787414 15.3437 0.812437 15.3437H2.12728C2.22806 15.3437 2.31244 15.264 2.31478 15.1632C2.35931 13.8038 2.91009 12.5312 3.87806 11.5656C4.56712 10.8765 5.41087 10.3984 6.33197 10.1663C6.42337 10.1429 6.48431 10.0562 6.47259 9.96244Z" fill="#A4A6B3"/>
</svg>
